<?xml version="1.0" standalone="no"?>
<!DOCTYPE svg PUBLIC "-//W3C//DTD SVG 20010904//EN"
 "http://www.w3.org/TR/2001/REC-SVG-20010904/DTD/svg10.dtd">
<svg version="1.0" xmlns="http://www.w3.org/2000/svg"
 width="300.000000pt" height="300.000000pt" viewBox="0 0 300.000000 300.000000"
 preserveAspectRatio="xMidYMid meet">
<metadata>
Created by potrace 1.11, written by Peter Selinger 2001-2013
</metadata>
<g transform="translate(0.000000,300.000000) scale(0.100000,-0.100000)"
fill="#000000" stroke="none">
<path d="M176 2984 c-32 -10 -64 -31 -96 -63 -86 -86 -80 16 -80 -1426 0
-1437 -6 -1330 80 -1415 85 -86 -23 -80 1420 -80 1443 0 1335 -6 1420 80 86
85 80 -23 80 1420 0 1443 6 1335 -80 1420 -85 86 23 80 -1419 79 -1102 0
-1283 -2 -1325 -15z m324 -1024 c15 -58 60 -232 101 -387 40 -156 75 -283 78
-283 4 0 46 159 94 353 49 193 94 369 100 390 l10 37 104 0 c56 0 103 -2 103
-4 0 -7 211 -791 214 -793 1 -2 8 21 15 50 11 42 66 252 189 712 8 30 8 30 91
33 46 2 87 -1 91 -5 4 -4 -13 -78 -37 -163 -24 -85 -92 -333 -151 -550 l-107
-395 -107 -3 -107 -3 -11 43 c-130 496 -205 771 -208 758 -2 -8 -47 -188 -100
-400 l-97 -385 -108 -3 c-59 -1 -107 0 -107 3 0 3 -65 248 -145 544 -80 296
-145 543 -145 550 0 8 29 11 106 9 l107 -3 27 -105z m1705 101 c196 -7 214 -9
265 -33 98 -44 153 -136 154 -253 0 -111 -56 -199 -149 -235 l-30 -12 45 -17
c187 -67 228 -342 72 -483 -76 -69 -100 -73 -437 -73 l-300 0 4 550 c2 303 5
553 8 558 5 8 85 8 368 -2z"/>
<path d="M2020 1750 l0 -150 148 0 c129 0 151 2 180 20 46 28 72 76 72 133 0
65 -21 101 -73 126 -38 18 -61 21 -185 21 l-142 0 0 -150z"/>
<path d="M2020 1281 l0 -163 163 4 c148 3 165 5 198 26 95 58 91 207 -6 263
-23 14 -66 19 -192 25 l-163 7 0 -162z"/>
</g>
</svg>
